<?xml version="1.0" encoding="UTF-8"?>
<svg width="16px" height="16px" viewBox="0 0 16 16" version="1.1" xmlns="http://www.w3.org/2000/svg" xmlns:xlink="http://www.w3.org/1999/xlink">
    <title>iconspace_Delete 2_25px</title>
    <g id="Design" stroke="none" stroke-width="1" fill="none" fill-rule="evenodd">
        <g id="5020-Search-Something" transform="translate(-312.000000, -88.000000)" fill="#C1C7D0">
            <g id="Search-Field" transform="translate(25.000000, 71.000000)">
                <g id="iconspace_Delete-2_25px" transform="translate(287.333333, 17.388889)">
                    <path d="M6.23346611,7.65305587 L0.292573481,1.7067869 C-0.097774144,1.31608602 -0.0974877754,0.682921106 0.293213103,0.292573481 C0.683913982,-0.097774144 1.3170789,-0.0974877754 1.70742652,0.293213103 L7.64873057,6.23989387 L13.6051052,0.292367799 C13.9959197,-0.0978660948 14.6290845,-0.0973954411 15.0193184,0.293419033 C15.4095523,0.684233507 15.4090816,1.31739831 15.0182672,1.7076322 L9.06230443,7.65474697 L15.0164272,13.614258 C15.4067748,14.0049589 15.4064884,14.6381238 15.0157875,15.0284714 C14.6250867,15.4188191 13.9919218,15.4185327 13.6015741,15.0278318 L7.64703996,9.06790897 L1.70658097,14.999543 C1.3157665,15.3897769 0.682601692,15.3893063 0.292367799,14.9984918 C-0.0978660948,14.6076773 -0.0973954411,13.9745125 0.293419033,13.5842786 L6.23346611,7.65305587 Z" id="Path"></path>
                </g>
            </g>
        </g>
    </g>
</svg>