<?xml version="1.0" encoding="UTF-8"?>
<svg width="20px" height="20px" viewBox="0 0 20 20" version="1.1" xmlns="http://www.w3.org/2000/svg" xmlns:xlink="http://www.w3.org/1999/xlink">
    <title>Component/Icon/Search</title>
    <g id="Design" stroke="none" stroke-width="1" fill="none" fill-rule="evenodd">
        <g id="2000-Choose-Genre-Favourite" transform="translate(-47.000000, -175.000000)" fill="#7A869A">
            <g id="Choose-Genre" transform="translate(25.000000, 160.000000)">
                <g id="Component/Icon/Search" transform="translate(20.000000, 13.000000)">
                    <path d="M18.6345473,17.3508214 L21.7174855,20.4328874 C22.574004,21.2891635 21.2895896,22.5739411 20.4330711,21.7176649 L17.3498675,18.6353336 C13.6462148,21.689987 8.1823972,21.4565543 4.74916841,18.0233259 C1.08361053,14.3577684 1.08361053,8.41472555 4.74916841,4.74916809 C8.41472629,1.08361064 14.3577698,1.08361064 18.0233277,4.74916809 C21.4568853,8.18272527 21.6899988,13.6471927 18.6345473,17.3508214 Z M16.7387317,6.03376401 C13.7826366,3.07766929 8.98985953,3.07766929 6.03376447,6.03376401 C3.07766941,8.98985874 3.07766941,13.7826353 6.03376447,16.73873 C8.98985953,19.6948247 13.7826366,19.6948247 16.7387317,16.73873 C19.6948267,13.7826353 19.6948267,8.98985874 16.7387317,6.03376401 Z" id="Path"></path>
                </g>
            </g>
        </g>
    </g>
</svg>